%FSLAX34Y34*%
%MOMM*%
%LNSILK_TOP*%
G71*
G01*
%ADD10C, 1.80*%
%ADD11C, 2.20*%
%ADD12C, 3.00*%
%ADD13C, 2.00*%
%ADD14C, 1.50*%
%ADD15C, 1.50*%
%ADD16C, 0.35*%
%ADD17C, 1.00*%
%ADD18C, 2.00*%
%ADD19C, 0.80*%
%ADD20C, 0.10*%
%ADD21C, 0.75*%
%ADD22C, 1.15*%
%ADD23C, 1.10*%
%LPD*%
X85328Y-25797D02*
G54D10*
D03*
G36*
X76328Y-42197D02*
X94328Y-42197D01*
X94328Y-60197D01*
X76328Y-60197D01*
X76328Y-42197D01*
G37*
X110728Y-25797D02*
G54D10*
D03*
X110728Y-51197D02*
G54D10*
D03*
X136128Y-25797D02*
G54D10*
D03*
X136128Y-51197D02*
G54D10*
D03*
X161528Y-25797D02*
G54D10*
D03*
X161528Y-51197D02*
G54D10*
D03*
X186928Y-25797D02*
G54D10*
D03*
X186928Y-51197D02*
G54D10*
D03*
X212328Y-25797D02*
G54D10*
D03*
X212328Y-51197D02*
G54D10*
D03*
X237828Y-25797D02*
G54D10*
D03*
X237828Y-51197D02*
G54D10*
D03*
X263228Y-25797D02*
G54D10*
D03*
X263228Y-51197D02*
G54D10*
D03*
X288628Y-25797D02*
G54D10*
D03*
X288628Y-51197D02*
G54D10*
D03*
X314028Y-25797D02*
G54D10*
D03*
X314028Y-51197D02*
G54D10*
D03*
X339428Y-25797D02*
G54D10*
D03*
X339428Y-51197D02*
G54D10*
D03*
X364828Y-25797D02*
G54D10*
D03*
X364828Y-51197D02*
G54D10*
D03*
X390228Y-25797D02*
G54D10*
D03*
X390228Y-51197D02*
G54D10*
D03*
X415628Y-25797D02*
G54D10*
D03*
X415628Y-51197D02*
G54D10*
D03*
X441028Y-25797D02*
G54D10*
D03*
X441028Y-51197D02*
G54D10*
D03*
X466428Y-25797D02*
G54D10*
D03*
X466428Y-51197D02*
G54D10*
D03*
X491828Y-25797D02*
G54D10*
D03*
X491828Y-51197D02*
G54D10*
D03*
X517228Y-25797D02*
G54D10*
D03*
X517228Y-51197D02*
G54D10*
D03*
X542628Y-25797D02*
G54D10*
D03*
X542628Y-51197D02*
G54D10*
D03*
X568028Y-25797D02*
G54D10*
D03*
X568028Y-51197D02*
G54D10*
D03*
X85725Y-162322D02*
G54D10*
D03*
G36*
X76725Y-178722D02*
X94725Y-178722D01*
X94725Y-196722D01*
X76725Y-196722D01*
X76725Y-178722D01*
G37*
X111125Y-162322D02*
G54D10*
D03*
X111125Y-187722D02*
G54D10*
D03*
X136525Y-162322D02*
G54D10*
D03*
X136525Y-187722D02*
G54D10*
D03*
X161925Y-162322D02*
G54D10*
D03*
X161925Y-187722D02*
G54D10*
D03*
X187325Y-162322D02*
G54D10*
D03*
X187325Y-187722D02*
G54D10*
D03*
X212725Y-162322D02*
G54D10*
D03*
X212725Y-187722D02*
G54D10*
D03*
X238225Y-162322D02*
G54D10*
D03*
X238225Y-187722D02*
G54D10*
D03*
X263625Y-162322D02*
G54D10*
D03*
X263625Y-187722D02*
G54D10*
D03*
X289025Y-162322D02*
G54D10*
D03*
X289025Y-187722D02*
G54D10*
D03*
X314425Y-162322D02*
G54D10*
D03*
X314425Y-187722D02*
G54D10*
D03*
X339825Y-162322D02*
G54D10*
D03*
X339825Y-187722D02*
G54D10*
D03*
X365225Y-162322D02*
G54D10*
D03*
X365225Y-187722D02*
G54D10*
D03*
X390625Y-162322D02*
G54D10*
D03*
X390625Y-187722D02*
G54D10*
D03*
X416025Y-162322D02*
G54D10*
D03*
X416025Y-187722D02*
G54D10*
D03*
X441425Y-162322D02*
G54D10*
D03*
X441425Y-187722D02*
G54D10*
D03*
X577878Y-174693D02*
G54D10*
D03*
X552478Y-174693D02*
G54D10*
D03*
X527078Y-174693D02*
G54D10*
D03*
G36*
X510678Y-165693D02*
X510678Y-183693D01*
X492678Y-183693D01*
X492678Y-165693D01*
X510678Y-165693D01*
G37*
X193278Y-509190D02*
G54D11*
D03*
X117078Y-509190D02*
G54D11*
D03*
X414337Y-509588D02*
G54D11*
D03*
X338137Y-509588D02*
G54D11*
D03*
X457200Y-509588D02*
G54D11*
D03*
X533400Y-509588D02*
G54D11*
D03*
X442515Y-439738D02*
G54D12*
D03*
X442515Y-265113D02*
G54D12*
D03*
X42465Y-439738D02*
G54D12*
D03*
X42465Y-265113D02*
G54D12*
D03*
X42465Y-439738D02*
G54D13*
D03*
X42465Y-265113D02*
G54D13*
D03*
X442515Y-265113D02*
G54D13*
D03*
X442515Y-439738D02*
G54D13*
D03*
X193278Y-509190D02*
G54D14*
D03*
X117078Y-509190D02*
G54D14*
D03*
X414337Y-509588D02*
G54D14*
D03*
X338137Y-509588D02*
G54D14*
D03*
X457200Y-509588D02*
G54D14*
D03*
X533400Y-509588D02*
G54D14*
D03*
X85725Y-162322D02*
G54D15*
D03*
G36*
X78225Y-180222D02*
X93225Y-180222D01*
X93225Y-195222D01*
X78225Y-195222D01*
X78225Y-180222D01*
G37*
X111125Y-162322D02*
G54D15*
D03*
X111125Y-187722D02*
G54D15*
D03*
X136525Y-162322D02*
G54D15*
D03*
X136525Y-187722D02*
G54D15*
D03*
X161925Y-162322D02*
G54D15*
D03*
X161925Y-187722D02*
G54D15*
D03*
X187325Y-162322D02*
G54D15*
D03*
X187325Y-187722D02*
G54D15*
D03*
X212725Y-162322D02*
G54D15*
D03*
X212725Y-187722D02*
G54D15*
D03*
X238225Y-162322D02*
G54D15*
D03*
X238225Y-187722D02*
G54D15*
D03*
X263625Y-162322D02*
G54D15*
D03*
X263625Y-187722D02*
G54D15*
D03*
X289025Y-162322D02*
G54D15*
D03*
X289025Y-187722D02*
G54D15*
D03*
X314425Y-162322D02*
G54D15*
D03*
X314425Y-187722D02*
G54D15*
D03*
X339825Y-162322D02*
G54D15*
D03*
X339825Y-187722D02*
G54D15*
D03*
X365225Y-162322D02*
G54D15*
D03*
X365225Y-187722D02*
G54D15*
D03*
X390625Y-162322D02*
G54D15*
D03*
X390625Y-187722D02*
G54D15*
D03*
X416025Y-162322D02*
G54D15*
D03*
X416025Y-187722D02*
G54D15*
D03*
X441425Y-162322D02*
G54D15*
D03*
X441425Y-187722D02*
G54D15*
D03*
X577878Y-174693D02*
G54D15*
D03*
X552478Y-174693D02*
G54D15*
D03*
X527078Y-174693D02*
G54D15*
D03*
G36*
X509178Y-167193D02*
X509178Y-182193D01*
X494178Y-182193D01*
X494178Y-167193D01*
X509178Y-167193D01*
G37*
X85328Y-25797D02*
G54D15*
D03*
G36*
X77828Y-43697D02*
X92828Y-43697D01*
X92828Y-58697D01*
X77828Y-58697D01*
X77828Y-43697D01*
G37*
X110728Y-25797D02*
G54D15*
D03*
X110728Y-51197D02*
G54D15*
D03*
X136128Y-25797D02*
G54D15*
D03*
X136128Y-51197D02*
G54D15*
D03*
X161528Y-25797D02*
G54D15*
D03*
X161528Y-51197D02*
G54D15*
D03*
X186928Y-25797D02*
G54D15*
D03*
X186928Y-51197D02*
G54D15*
D03*
X212328Y-25797D02*
G54D15*
D03*
X212328Y-51197D02*
G54D15*
D03*
X237828Y-25797D02*
G54D15*
D03*
X237828Y-51197D02*
G54D15*
D03*
X263228Y-25797D02*
G54D15*
D03*
X263228Y-51197D02*
G54D15*
D03*
X288628Y-25797D02*
G54D15*
D03*
X288628Y-51197D02*
G54D15*
D03*
X314028Y-25797D02*
G54D15*
D03*
X314028Y-51197D02*
G54D15*
D03*
X339428Y-25797D02*
G54D15*
D03*
X339428Y-51197D02*
G54D15*
D03*
X364828Y-25797D02*
G54D15*
D03*
X364828Y-51197D02*
G54D15*
D03*
X390228Y-25797D02*
G54D15*
D03*
X390228Y-51197D02*
G54D15*
D03*
X415628Y-25797D02*
G54D15*
D03*
X415628Y-51197D02*
G54D15*
D03*
X441028Y-25797D02*
G54D15*
D03*
X441028Y-51197D02*
G54D15*
D03*
X466428Y-25797D02*
G54D15*
D03*
X466428Y-51197D02*
G54D15*
D03*
X491828Y-25797D02*
G54D15*
D03*
X491828Y-51197D02*
G54D15*
D03*
X517228Y-25797D02*
G54D15*
D03*
X517228Y-51197D02*
G54D15*
D03*
X542628Y-25797D02*
G54D15*
D03*
X542628Y-51197D02*
G54D15*
D03*
X568028Y-25797D02*
G54D15*
D03*
X568028Y-51197D02*
G54D15*
D03*
G54D16*
X212328Y-51197D02*
X212328Y-75803D01*
X66675Y-76200D01*
X66675Y-168672D01*
X85725Y-187722D01*
G54D16*
X85725Y-162322D02*
X85725Y-82550D01*
X225425Y-82550D01*
X225425Y-38894D01*
X212328Y-25797D01*
G54D16*
X111125Y-187722D02*
X111125Y-187325D01*
X98425Y-174625D01*
X98425Y-88900D01*
X238125Y-88900D01*
X237828Y-51197D01*
G54D16*
X111125Y-162322D02*
X111125Y-95250D01*
X263525Y-95250D01*
X263525Y-51494D01*
X263228Y-51197D01*
G54D16*
X136525Y-187722D02*
X136525Y-187325D01*
X123825Y-174625D01*
X123825Y-101600D01*
X276225Y-101600D01*
X276225Y-38794D01*
X263228Y-25797D01*
G54D16*
X136228Y-162025D02*
X136228Y-107653D01*
X301328Y-107653D01*
X301328Y-38497D01*
X288331Y-25500D01*
G54D16*
X161925Y-187722D02*
X161925Y-187325D01*
X149225Y-174625D01*
X149225Y-114300D01*
X327025Y-114300D01*
X327025Y-38200D01*
X339428Y-25797D01*
G54D16*
X161925Y-162322D02*
X161925Y-120650D01*
X441325Y-120650D01*
X441028Y-51197D01*
G54D16*
X187325Y-162322D02*
X187325Y-133350D01*
X479425Y-133350D01*
X479425Y-38100D01*
X466428Y-25797D01*
G54D16*
X212725Y-187722D02*
X212725Y-187325D01*
X200025Y-174625D01*
X200025Y-139700D01*
X492125Y-139700D01*
X491828Y-51197D01*
G54D16*
X187325Y-187722D02*
X187325Y-187325D01*
X174625Y-174625D01*
X174625Y-127000D01*
X466725Y-127000D01*
X466428Y-51197D01*
G54D16*
X212725Y-162322D02*
X212725Y-146050D01*
X517525Y-145753D01*
X517228Y-51197D01*
G54D16*
X263625Y-187722D02*
X253603Y-208359D01*
X59531Y-208359D01*
X59531Y-68262D01*
X110728Y-68262D01*
X110728Y-51197D01*
G54D16*
X390625Y-187722D02*
X402828Y-175022D01*
X459978Y-175022D01*
X459978Y-152400D01*
X529828Y-152400D01*
X529928Y-39291D01*
X542628Y-25797D01*
G54D16*
X263625Y-162322D02*
X263922Y-162322D01*
X276225Y-174625D01*
X276225Y-207566D01*
X450946Y-207566D01*
X473472Y-184547D01*
X501678Y-174693D01*
G54D17*
X577850Y-117475D02*
X600075Y-136525D01*
X600103Y-226587D01*
X559991Y-226615D01*
G54D17*
X338137Y-509588D02*
X338138Y-379412D01*
X458788Y-379016D01*
X493556Y-312837D01*
G54D17*
X518319Y-437753D02*
X518319Y-463550D01*
X533400Y-477838D01*
X533400Y-509588D01*
G54D17*
X414337Y-509588D02*
X457200Y-509588D01*
G54D17*
X457200Y-509588D02*
X442912Y-439341D01*
X442515Y-439738D01*
G54D17*
X442515Y-265113D02*
X478234Y-241300D01*
X517922Y-241300D01*
X577850Y-117475D02*
G54D18*
D03*
X552450Y-117475D02*
G54D18*
D03*
X577850Y-117475D02*
G54D15*
D03*
X577850Y-117475D02*
G54D15*
D03*
X552450Y-117475D02*
G54D15*
D03*
G54D17*
X552450Y-117475D02*
X552450Y-133350D01*
X577850Y-158750D01*
X577850Y-174665D01*
X577878Y-174693D01*
G54D17*
X577878Y-174693D02*
X577878Y-204363D01*
X483394Y-204391D01*
X463550Y-224234D01*
X78185Y-223838D01*
X42465Y-265113D01*
G54D17*
X42465Y-439738D02*
X117078Y-509190D01*
G54D17*
X568028Y-51197D02*
X568028Y-76497D01*
X552450Y-92075D01*
X552450Y-117475D01*
G54D19*
X136128Y-25797D02*
X148034Y-8731D01*
X585391Y-8334D01*
X585391Y-35819D01*
X568028Y-51197D01*
G54D19*
X110728Y-25797D02*
X85328Y-25797D01*
G54D20*
X563959Y-275034D02*
X575072Y-275034D01*
X575072Y-305991D01*
X563959Y-305991D01*
X563959Y-275034D01*
G36*
X578247Y-275034D02*
X578247Y-271859D01*
X560784Y-271859D01*
X560784Y-275034D01*
X578247Y-275034D01*
G37*
G54D20*
X578247Y-275034D02*
X578247Y-271859D01*
X560784Y-271859D01*
X560784Y-275034D01*
X578247Y-275034D01*
G36*
X560784Y-271859D02*
X560784Y-309166D01*
X563959Y-309166D01*
X563959Y-271859D01*
X560784Y-271859D01*
G37*
G54D20*
X560784Y-271859D02*
X560784Y-309166D01*
X563959Y-309166D01*
X563959Y-271859D01*
X560784Y-271859D01*
G36*
X578247Y-271859D02*
X578247Y-308372D01*
X575072Y-308372D01*
X575072Y-271859D01*
X578247Y-271859D01*
G37*
G54D20*
X578247Y-271859D02*
X578247Y-308372D01*
X575072Y-308372D01*
X575072Y-271859D01*
X578247Y-271859D01*
G36*
X578247Y-309166D02*
X578247Y-305991D01*
X560784Y-305991D01*
X560784Y-309166D01*
X578247Y-309166D01*
G37*
G54D20*
X578247Y-309166D02*
X578247Y-305991D01*
X560784Y-305991D01*
X560784Y-309166D01*
X578247Y-309166D01*
G54D21*
X560388Y-271462D02*
X578644Y-271462D01*
X578644Y-309562D01*
X560388Y-309562D01*
X560388Y-271462D01*
G54D22*
X556816Y-313134D02*
X582216Y-313134D01*
X582216Y-267891D01*
X556816Y-267891D01*
X556816Y-313134D01*
G54D20*
X553641Y-234553D02*
X553641Y-245665D01*
X522685Y-245665D01*
X522685Y-234553D01*
X553641Y-234553D01*
G36*
X553641Y-248840D02*
X556816Y-248840D01*
X556816Y-231378D01*
X553641Y-231378D01*
X553641Y-248840D01*
G37*
G54D20*
X553641Y-248840D02*
X556816Y-248840D01*
X556816Y-231378D01*
X553641Y-231378D01*
X553641Y-248840D01*
G36*
X556816Y-231378D02*
X519510Y-231378D01*
X519510Y-234553D01*
X556816Y-234553D01*
X556816Y-231378D01*
G37*
G54D20*
X556816Y-231378D02*
X519510Y-231378D01*
X519510Y-234553D01*
X556816Y-234553D01*
X556816Y-231378D01*
G36*
X556816Y-248840D02*
X520303Y-248840D01*
X520303Y-245665D01*
X556816Y-245665D01*
X556816Y-248840D01*
G37*
G54D20*
X556816Y-248840D02*
X520303Y-248840D01*
X520303Y-245665D01*
X556816Y-245665D01*
X556816Y-248840D01*
G36*
X519510Y-248840D02*
X522685Y-248840D01*
X522685Y-231378D01*
X519510Y-231378D01*
X519510Y-248840D01*
G37*
G54D20*
X519510Y-248840D02*
X522685Y-248840D01*
X522685Y-231378D01*
X519510Y-231378D01*
X519510Y-248840D01*
G54D21*
X557213Y-230981D02*
X557213Y-249237D01*
X519113Y-249237D01*
X519113Y-230981D01*
X557213Y-230981D01*
G54D22*
X515541Y-227409D02*
X515541Y-252809D01*
X560785Y-252809D01*
X560785Y-227409D01*
X515541Y-227409D01*
G54D22*
X560785Y-252809D02*
X560785Y-263525D01*
X515938Y-227806D02*
G54D23*
D03*
X560388Y-227806D02*
G54D23*
D03*
X560388Y-252809D02*
G54D23*
D03*
X515938Y-252412D02*
G54D23*
D03*
X582059Y-268387D02*
G54D23*
D03*
X582059Y-312836D02*
G54D23*
D03*
X557056Y-312837D02*
G54D23*
D03*
X557453Y-268387D02*
G54D23*
D03*
G54D20*
X500459Y-275034D02*
X511572Y-275034D01*
X511572Y-305991D01*
X500459Y-305991D01*
X500459Y-275034D01*
G36*
X514747Y-275034D02*
X514747Y-271859D01*
X497284Y-271859D01*
X497284Y-275034D01*
X514747Y-275034D01*
G37*
G54D20*
X514747Y-275034D02*
X514747Y-271859D01*
X497284Y-271859D01*
X497284Y-275034D01*
X514747Y-275034D01*
G36*
X497284Y-271859D02*
X497284Y-309166D01*
X500459Y-309166D01*
X500459Y-271859D01*
X497284Y-271859D01*
G37*
G54D20*
X497284Y-271859D02*
X497284Y-309166D01*
X500459Y-309166D01*
X500459Y-271859D01*
X497284Y-271859D01*
G36*
X514747Y-271859D02*
X514747Y-308372D01*
X511572Y-308372D01*
X511572Y-271859D01*
X514747Y-271859D01*
G37*
G54D20*
X514747Y-271859D02*
X514747Y-308372D01*
X511572Y-308372D01*
X511572Y-271859D01*
X514747Y-271859D01*
G36*
X514747Y-309166D02*
X514747Y-305991D01*
X497284Y-305991D01*
X497284Y-309166D01*
X514747Y-309166D01*
G37*
G54D20*
X514747Y-309166D02*
X514747Y-305991D01*
X497284Y-305991D01*
X497284Y-309166D01*
X514747Y-309166D01*
G54D21*
X496888Y-271462D02*
X515144Y-271462D01*
X515144Y-309562D01*
X496888Y-309562D01*
X496888Y-271462D01*
G54D22*
X493316Y-313134D02*
X518716Y-313134D01*
X518716Y-267891D01*
X493316Y-267891D01*
X493316Y-313134D01*
X518559Y-268387D02*
G54D23*
D03*
X518559Y-312836D02*
G54D23*
D03*
X493556Y-312837D02*
G54D23*
D03*
X493953Y-268387D02*
G54D23*
D03*
G54D20*
X563959Y-401638D02*
X575072Y-401638D01*
X575072Y-432594D01*
X563959Y-432594D01*
X563959Y-401638D01*
G36*
X578247Y-401638D02*
X578247Y-398462D01*
X560784Y-398462D01*
X560784Y-401638D01*
X578247Y-401638D01*
G37*
G54D20*
X578247Y-401638D02*
X578247Y-398462D01*
X560784Y-398462D01*
X560784Y-401638D01*
X578247Y-401638D01*
G36*
X560784Y-398462D02*
X560784Y-435769D01*
X563959Y-435769D01*
X563959Y-398462D01*
X560784Y-398462D01*
G37*
G54D20*
X560784Y-398462D02*
X560784Y-435769D01*
X563959Y-435769D01*
X563959Y-398462D01*
X560784Y-398462D01*
G36*
X578247Y-398462D02*
X578247Y-434975D01*
X575072Y-434975D01*
X575072Y-398462D01*
X578247Y-398462D01*
G37*
G54D20*
X578247Y-398462D02*
X578247Y-434975D01*
X575072Y-434975D01*
X575072Y-398462D01*
X578247Y-398462D01*
G36*
X578247Y-435769D02*
X578247Y-432594D01*
X560784Y-432594D01*
X560784Y-435769D01*
X578247Y-435769D01*
G37*
G54D20*
X578247Y-435769D02*
X578247Y-432594D01*
X560784Y-432594D01*
X560784Y-435769D01*
X578247Y-435769D01*
G54D21*
X560388Y-398066D02*
X578644Y-398066D01*
X578644Y-436166D01*
X560388Y-436166D01*
X560388Y-398066D01*
G54D22*
X556816Y-439738D02*
X582216Y-439738D01*
X582216Y-394494D01*
X556816Y-394494D01*
X556816Y-439738D01*
G54D20*
X553641Y-361156D02*
X553641Y-372268D01*
X522685Y-372268D01*
X522685Y-361156D01*
X553641Y-361156D01*
G36*
X553641Y-375443D02*
X556816Y-375443D01*
X556816Y-357981D01*
X553641Y-357981D01*
X553641Y-375443D01*
G37*
G54D20*
X553641Y-375443D02*
X556816Y-375443D01*
X556816Y-357981D01*
X553641Y-357981D01*
X553641Y-375443D01*
G36*
X556816Y-357981D02*
X519510Y-357981D01*
X519510Y-361156D01*
X556816Y-361156D01*
X556816Y-357981D01*
G37*
G54D20*
X556816Y-357981D02*
X519510Y-357981D01*
X519510Y-361156D01*
X556816Y-361156D01*
X556816Y-357981D01*
G36*
X556816Y-375443D02*
X520303Y-375443D01*
X520303Y-372268D01*
X556816Y-372268D01*
X556816Y-375443D01*
G37*
G54D20*
X556816Y-375443D02*
X520303Y-375443D01*
X520303Y-372268D01*
X556816Y-372268D01*
X556816Y-375443D01*
G36*
X519510Y-375443D02*
X522685Y-375443D01*
X522685Y-357981D01*
X519510Y-357981D01*
X519510Y-375443D01*
G37*
G54D20*
X519510Y-375443D02*
X522685Y-375443D01*
X522685Y-357981D01*
X519510Y-357981D01*
X519510Y-375443D01*
G54D21*
X557213Y-357584D02*
X557213Y-375840D01*
X519113Y-375840D01*
X519113Y-357584D01*
X557213Y-357584D01*
G54D22*
X515541Y-354012D02*
X515541Y-379412D01*
X560785Y-379412D01*
X560785Y-354012D01*
X515541Y-354012D01*
G54D22*
X560785Y-379412D02*
X560785Y-390128D01*
X515938Y-354409D02*
G54D23*
D03*
X560388Y-354409D02*
G54D23*
D03*
X560388Y-379412D02*
G54D23*
D03*
X515938Y-379015D02*
G54D23*
D03*
X582059Y-394990D02*
G54D23*
D03*
X582059Y-439440D02*
G54D23*
D03*
X557056Y-439440D02*
G54D23*
D03*
X557453Y-394990D02*
G54D23*
D03*
G54D20*
X500459Y-401638D02*
X511572Y-401638D01*
X511572Y-432594D01*
X500459Y-432594D01*
X500459Y-401638D01*
G36*
X514747Y-401638D02*
X514747Y-398462D01*
X497284Y-398462D01*
X497284Y-401638D01*
X514747Y-401638D01*
G37*
G54D20*
X514747Y-401638D02*
X514747Y-398462D01*
X497284Y-398462D01*
X497284Y-401638D01*
X514747Y-401638D01*
G36*
X497284Y-398462D02*
X497284Y-435769D01*
X500459Y-435769D01*
X500459Y-398462D01*
X497284Y-398462D01*
G37*
G54D20*
X497284Y-398462D02*
X497284Y-435769D01*
X500459Y-435769D01*
X500459Y-398462D01*
X497284Y-398462D01*
G36*
X514747Y-398462D02*
X514747Y-434975D01*
X511572Y-434975D01*
X511572Y-398462D01*
X514747Y-398462D01*
G37*
G54D20*
X514747Y-398462D02*
X514747Y-434975D01*
X511572Y-434975D01*
X511572Y-398462D01*
X514747Y-398462D01*
G36*
X514747Y-435769D02*
X514747Y-432594D01*
X497284Y-432594D01*
X497284Y-435769D01*
X514747Y-435769D01*
G37*
G54D20*
X514747Y-435769D02*
X514747Y-432594D01*
X497284Y-432594D01*
X497284Y-435769D01*
X514747Y-435769D01*
G54D21*
X496888Y-398066D02*
X515144Y-398066D01*
X515144Y-436166D01*
X496888Y-436166D01*
X496888Y-398066D01*
G54D22*
X493316Y-439738D02*
X518716Y-439738D01*
X518716Y-394494D01*
X493316Y-394494D01*
X493316Y-439738D01*
X518559Y-394990D02*
G54D23*
D03*
X518559Y-439440D02*
G54D23*
D03*
X493556Y-439440D02*
G54D23*
D03*
X493953Y-394990D02*
G54D23*
D03*
G54D17*
X557056Y-312837D02*
X560388Y-354409D01*
M02*
