%FSLAX34Y34*%
%MOMM*%
%LNCOPPER_BOTTOM*%
G71*
G01*
%ADD10C, 0.20*%
%ADD11C, 0.22*%
%ADD12C, 0.25*%
%ADD13C, 0.10*%
%ADD14C, 0.32*%
%ADD15C, 0.35*%
%LPD*%
G54D10*
X98028Y-25797D02*
X98028Y-19397D01*
X91728Y-13097D01*
X78928Y-13097D01*
X72628Y-19397D01*
X72628Y-32197D01*
X78928Y-38497D01*
X91728Y-38497D01*
X98028Y-32197D01*
X98028Y-25797D01*
G54D10*
X98028Y-51197D02*
X98028Y-44797D01*
X91728Y-38497D01*
X78928Y-38497D01*
X72628Y-44797D01*
X72628Y-57597D01*
X78928Y-63897D01*
X91728Y-63897D01*
X98028Y-57597D01*
X98028Y-51197D01*
G54D10*
X123428Y-25797D02*
X123428Y-19397D01*
X117128Y-13097D01*
X104328Y-13097D01*
X98028Y-19397D01*
X98028Y-32197D01*
X104328Y-38497D01*
X117128Y-38497D01*
X123428Y-32197D01*
X123428Y-25797D01*
G54D10*
X123428Y-51197D02*
X123428Y-44797D01*
X117128Y-38497D01*
X104328Y-38497D01*
X98028Y-44797D01*
X98028Y-57597D01*
X104328Y-63897D01*
X117128Y-63897D01*
X123428Y-57597D01*
X123428Y-51197D01*
G54D10*
X148828Y-25797D02*
X148828Y-19397D01*
X142528Y-13097D01*
X129728Y-13097D01*
X123428Y-19397D01*
X123428Y-32197D01*
X129728Y-38497D01*
X142528Y-38497D01*
X148828Y-32197D01*
X148828Y-25797D01*
G54D10*
X148828Y-51197D02*
X148828Y-44797D01*
X142528Y-38497D01*
X129728Y-38497D01*
X123428Y-44797D01*
X123428Y-57597D01*
X129728Y-63897D01*
X142528Y-63897D01*
X148828Y-57597D01*
X148828Y-51197D01*
G54D10*
X174228Y-25797D02*
X174228Y-19397D01*
X167928Y-13097D01*
X155128Y-13097D01*
X148828Y-19397D01*
X148828Y-32197D01*
X155128Y-38497D01*
X167928Y-38497D01*
X174228Y-32197D01*
X174228Y-25797D01*
G54D10*
X174228Y-51197D02*
X174228Y-44797D01*
X167928Y-38497D01*
X155128Y-38497D01*
X148828Y-44797D01*
X148828Y-57597D01*
X155128Y-63897D01*
X167928Y-63897D01*
X174228Y-57597D01*
X174228Y-51197D01*
G54D10*
X199628Y-25797D02*
X199628Y-19397D01*
X193328Y-13097D01*
X180528Y-13097D01*
X174228Y-19397D01*
X174228Y-32197D01*
X180528Y-38497D01*
X193328Y-38497D01*
X199628Y-32197D01*
X199628Y-25797D01*
G54D10*
X199628Y-51197D02*
X199628Y-44797D01*
X193328Y-38497D01*
X180528Y-38497D01*
X174228Y-44797D01*
X174228Y-57597D01*
X180528Y-63897D01*
X193328Y-63897D01*
X199628Y-57597D01*
X199628Y-51197D01*
G54D10*
X225028Y-25797D02*
X225028Y-19397D01*
X218728Y-13097D01*
X205928Y-13097D01*
X199628Y-19397D01*
X199628Y-32197D01*
X205928Y-38497D01*
X218728Y-38497D01*
X225028Y-32197D01*
X225028Y-25797D01*
G54D10*
X225028Y-51197D02*
X225028Y-44797D01*
X218728Y-38497D01*
X205928Y-38497D01*
X199628Y-44797D01*
X199628Y-57597D01*
X205928Y-63897D01*
X218728Y-63897D01*
X225028Y-57597D01*
X225028Y-51197D01*
G54D10*
X250528Y-25797D02*
X250528Y-19397D01*
X244228Y-13097D01*
X231428Y-13097D01*
X225128Y-19397D01*
X225128Y-32197D01*
X231428Y-38497D01*
X244228Y-38497D01*
X250528Y-32197D01*
X250528Y-25797D01*
G54D10*
X250528Y-51197D02*
X250528Y-44797D01*
X244228Y-38497D01*
X231428Y-38497D01*
X225128Y-44797D01*
X225128Y-57597D01*
X231428Y-63897D01*
X244228Y-63897D01*
X250528Y-57597D01*
X250528Y-51197D01*
G54D10*
X275928Y-25797D02*
X275928Y-19397D01*
X269628Y-13097D01*
X256828Y-13097D01*
X250528Y-19397D01*
X250528Y-32197D01*
X256828Y-38497D01*
X269628Y-38497D01*
X275928Y-32197D01*
X275928Y-25797D01*
G54D10*
X275928Y-51197D02*
X275928Y-44797D01*
X269628Y-38497D01*
X256828Y-38497D01*
X250528Y-44797D01*
X250528Y-57597D01*
X256828Y-63897D01*
X269628Y-63897D01*
X275928Y-57597D01*
X275928Y-51197D01*
G54D10*
X301328Y-25797D02*
X301328Y-19397D01*
X295028Y-13097D01*
X282228Y-13097D01*
X275928Y-19397D01*
X275928Y-32197D01*
X282228Y-38497D01*
X295028Y-38497D01*
X301328Y-32197D01*
X301328Y-25797D01*
G54D10*
X301328Y-51197D02*
X301328Y-44797D01*
X295028Y-38497D01*
X282228Y-38497D01*
X275928Y-44797D01*
X275928Y-57597D01*
X282228Y-63897D01*
X295028Y-63897D01*
X301328Y-57597D01*
X301328Y-51197D01*
G54D10*
X326728Y-25797D02*
X326728Y-19397D01*
X320428Y-13097D01*
X307628Y-13097D01*
X301328Y-19397D01*
X301328Y-32197D01*
X307628Y-38497D01*
X320428Y-38497D01*
X326728Y-32197D01*
X326728Y-25797D01*
G54D10*
X326728Y-51197D02*
X326728Y-44797D01*
X320428Y-38497D01*
X307628Y-38497D01*
X301328Y-44797D01*
X301328Y-57597D01*
X307628Y-63897D01*
X320428Y-63897D01*
X326728Y-57597D01*
X326728Y-51197D01*
G54D10*
X352128Y-25797D02*
X352128Y-19397D01*
X345828Y-13097D01*
X333028Y-13097D01*
X326728Y-19397D01*
X326728Y-32197D01*
X333028Y-38497D01*
X345828Y-38497D01*
X352128Y-32197D01*
X352128Y-25797D01*
G54D10*
X352128Y-51197D02*
X352128Y-44797D01*
X345828Y-38497D01*
X333028Y-38497D01*
X326728Y-44797D01*
X326728Y-57597D01*
X333028Y-63897D01*
X345828Y-63897D01*
X352128Y-57597D01*
X352128Y-51197D01*
G54D10*
X377528Y-25797D02*
X377528Y-19397D01*
X371228Y-13097D01*
X358428Y-13097D01*
X352128Y-19397D01*
X352128Y-32197D01*
X358428Y-38497D01*
X371228Y-38497D01*
X377528Y-32197D01*
X377528Y-25797D01*
G54D10*
X377528Y-51197D02*
X377528Y-44797D01*
X371228Y-38497D01*
X358428Y-38497D01*
X352128Y-44797D01*
X352128Y-57597D01*
X358428Y-63897D01*
X371228Y-63897D01*
X377528Y-57597D01*
X377528Y-51197D01*
G54D10*
X402928Y-25797D02*
X402928Y-19397D01*
X396628Y-13097D01*
X383828Y-13097D01*
X377528Y-19397D01*
X377528Y-32197D01*
X383828Y-38497D01*
X396628Y-38497D01*
X402928Y-32197D01*
X402928Y-25797D01*
G54D10*
X402928Y-51197D02*
X402928Y-44797D01*
X396628Y-38497D01*
X383828Y-38497D01*
X377528Y-44797D01*
X377528Y-57597D01*
X383828Y-63897D01*
X396628Y-63897D01*
X402928Y-57597D01*
X402928Y-51197D01*
G54D10*
X428328Y-25797D02*
X428328Y-19397D01*
X422028Y-13097D01*
X409228Y-13097D01*
X402928Y-19397D01*
X402928Y-32197D01*
X409228Y-38497D01*
X422028Y-38497D01*
X428328Y-32197D01*
X428328Y-25797D01*
G54D10*
X428328Y-51197D02*
X428328Y-44797D01*
X422028Y-38497D01*
X409228Y-38497D01*
X402928Y-44797D01*
X402928Y-57597D01*
X409228Y-63897D01*
X422028Y-63897D01*
X428328Y-57597D01*
X428328Y-51197D01*
G54D10*
X453728Y-25797D02*
X453728Y-19397D01*
X447428Y-13097D01*
X434628Y-13097D01*
X428328Y-19397D01*
X428328Y-32197D01*
X434628Y-38497D01*
X447428Y-38497D01*
X453728Y-32197D01*
X453728Y-25797D01*
G54D10*
X453728Y-51197D02*
X453728Y-44797D01*
X447428Y-38497D01*
X434628Y-38497D01*
X428328Y-44797D01*
X428328Y-57597D01*
X434628Y-63897D01*
X447428Y-63897D01*
X453728Y-57597D01*
X453728Y-51197D01*
G54D10*
X479128Y-25797D02*
X479128Y-19397D01*
X472828Y-13097D01*
X460028Y-13097D01*
X453728Y-19397D01*
X453728Y-32197D01*
X460028Y-38497D01*
X472828Y-38497D01*
X479128Y-32197D01*
X479128Y-25797D01*
G54D10*
X479128Y-51197D02*
X479128Y-44797D01*
X472828Y-38497D01*
X460028Y-38497D01*
X453728Y-44797D01*
X453728Y-57597D01*
X460028Y-63897D01*
X472828Y-63897D01*
X479128Y-57597D01*
X479128Y-51197D01*
G54D10*
X504528Y-25797D02*
X504528Y-19397D01*
X498228Y-13097D01*
X485428Y-13097D01*
X479128Y-19397D01*
X479128Y-32197D01*
X485428Y-38497D01*
X498228Y-38497D01*
X504528Y-32197D01*
X504528Y-25797D01*
G54D10*
X504528Y-51197D02*
X504528Y-44797D01*
X498228Y-38497D01*
X485428Y-38497D01*
X479128Y-44797D01*
X479128Y-57597D01*
X485428Y-63897D01*
X498228Y-63897D01*
X504528Y-57597D01*
X504528Y-51197D01*
G54D10*
X529928Y-25797D02*
X529928Y-19397D01*
X523628Y-13097D01*
X510828Y-13097D01*
X504528Y-19397D01*
X504528Y-32197D01*
X510828Y-38497D01*
X523628Y-38497D01*
X529928Y-32197D01*
X529928Y-25797D01*
G54D10*
X529928Y-51197D02*
X529928Y-44797D01*
X523628Y-38497D01*
X510828Y-38497D01*
X504528Y-44797D01*
X504528Y-57597D01*
X510828Y-63897D01*
X523628Y-63897D01*
X529928Y-57597D01*
X529928Y-51197D01*
G54D10*
X555328Y-25797D02*
X555328Y-19397D01*
X549028Y-13097D01*
X536228Y-13097D01*
X529928Y-19397D01*
X529928Y-32197D01*
X536228Y-38497D01*
X549028Y-38497D01*
X555328Y-32197D01*
X555328Y-25797D01*
G54D10*
X555328Y-51197D02*
X555328Y-44797D01*
X549028Y-38497D01*
X536228Y-38497D01*
X529928Y-44797D01*
X529928Y-57597D01*
X536228Y-63897D01*
X549028Y-63897D01*
X555328Y-57597D01*
X555328Y-51197D01*
G54D10*
X580728Y-25797D02*
X580728Y-19397D01*
X574428Y-13097D01*
X561628Y-13097D01*
X555328Y-19397D01*
X555328Y-32197D01*
X561628Y-38497D01*
X574428Y-38497D01*
X580728Y-32197D01*
X580728Y-25797D01*
G54D10*
X580728Y-51197D02*
X580728Y-44797D01*
X574428Y-38497D01*
X561628Y-38497D01*
X555328Y-44797D01*
X555328Y-57597D01*
X561628Y-63897D01*
X574428Y-63897D01*
X580728Y-57597D01*
X580728Y-51197D01*
G54D11*
X79955Y-80241D02*
X84622Y-75574D01*
X84622Y-88019D01*
G54D10*
X98425Y-162322D02*
X98425Y-155922D01*
X92125Y-149622D01*
X79325Y-149622D01*
X73025Y-155922D01*
X73025Y-168722D01*
X79325Y-175022D01*
X92125Y-175022D01*
X98425Y-168722D01*
X98425Y-162322D01*
G54D10*
X98425Y-187722D02*
X98425Y-181322D01*
X92125Y-175022D01*
X79325Y-175022D01*
X73025Y-181322D01*
X73025Y-194122D01*
X79325Y-200422D01*
X92125Y-200422D01*
X98425Y-194122D01*
X98425Y-187722D01*
G54D10*
X123825Y-162322D02*
X123825Y-155922D01*
X117525Y-149622D01*
X104725Y-149622D01*
X98425Y-155922D01*
X98425Y-168722D01*
X104725Y-175022D01*
X117525Y-175022D01*
X123825Y-168722D01*
X123825Y-162322D01*
G54D10*
X123825Y-187722D02*
X123825Y-181322D01*
X117525Y-175022D01*
X104725Y-175022D01*
X98425Y-181322D01*
X98425Y-194122D01*
X104725Y-200422D01*
X117525Y-200422D01*
X123825Y-194122D01*
X123825Y-187722D01*
G54D10*
X149225Y-162322D02*
X149225Y-155922D01*
X142925Y-149622D01*
X130125Y-149622D01*
X123825Y-155922D01*
X123825Y-168722D01*
X130125Y-175022D01*
X142925Y-175022D01*
X149225Y-168722D01*
X149225Y-162322D01*
G54D10*
X149225Y-187722D02*
X149225Y-181322D01*
X142925Y-175022D01*
X130125Y-175022D01*
X123825Y-181322D01*
X123825Y-194122D01*
X130125Y-200422D01*
X142925Y-200422D01*
X149225Y-194122D01*
X149225Y-187722D01*
G54D10*
X174625Y-162322D02*
X174625Y-155922D01*
X168325Y-149622D01*
X155525Y-149622D01*
X149225Y-155922D01*
X149225Y-168722D01*
X155525Y-175022D01*
X168325Y-175022D01*
X174625Y-168722D01*
X174625Y-162322D01*
G54D10*
X174625Y-187722D02*
X174625Y-181322D01*
X168325Y-175022D01*
X155525Y-175022D01*
X149225Y-181322D01*
X149225Y-194122D01*
X155525Y-200422D01*
X168325Y-200422D01*
X174625Y-194122D01*
X174625Y-187722D01*
G54D10*
X200025Y-162322D02*
X200025Y-155922D01*
X193725Y-149622D01*
X180925Y-149622D01*
X174625Y-155922D01*
X174625Y-168722D01*
X180925Y-175022D01*
X193725Y-175022D01*
X200025Y-168722D01*
X200025Y-162322D01*
G54D10*
X200025Y-187722D02*
X200025Y-181322D01*
X193725Y-175022D01*
X180925Y-175022D01*
X174625Y-181322D01*
X174625Y-194122D01*
X180925Y-200422D01*
X193725Y-200422D01*
X200025Y-194122D01*
X200025Y-187722D01*
G54D10*
X225425Y-162322D02*
X225425Y-155922D01*
X219125Y-149622D01*
X206325Y-149622D01*
X200025Y-155922D01*
X200025Y-168722D01*
X206325Y-175022D01*
X219125Y-175022D01*
X225425Y-168722D01*
X225425Y-162322D01*
G54D10*
X225425Y-187722D02*
X225425Y-181322D01*
X219125Y-175022D01*
X206325Y-175022D01*
X200025Y-181322D01*
X200025Y-194122D01*
X206325Y-200422D01*
X219125Y-200422D01*
X225425Y-194122D01*
X225425Y-187722D01*
G54D10*
X250925Y-162322D02*
X250925Y-155922D01*
X244625Y-149622D01*
X231825Y-149622D01*
X225525Y-155922D01*
X225525Y-168722D01*
X231825Y-175022D01*
X244625Y-175022D01*
X250925Y-168722D01*
X250925Y-162322D01*
G54D10*
X250925Y-187722D02*
X250925Y-181322D01*
X244625Y-175022D01*
X231825Y-175022D01*
X225525Y-181322D01*
X225525Y-194122D01*
X231825Y-200422D01*
X244625Y-200422D01*
X250925Y-194122D01*
X250925Y-187722D01*
G54D10*
X276325Y-162322D02*
X276325Y-155922D01*
X270025Y-149622D01*
X257225Y-149622D01*
X250925Y-155922D01*
X250925Y-168722D01*
X257225Y-175022D01*
X270025Y-175022D01*
X276325Y-168722D01*
X276325Y-162322D01*
G54D10*
X276325Y-187722D02*
X276325Y-181322D01*
X270025Y-175022D01*
X257225Y-175022D01*
X250925Y-181322D01*
X250925Y-194122D01*
X257225Y-200422D01*
X270025Y-200422D01*
X276325Y-194122D01*
X276325Y-187722D01*
G54D10*
X301725Y-162322D02*
X301725Y-155922D01*
X295425Y-149622D01*
X282625Y-149622D01*
X276325Y-155922D01*
X276325Y-168722D01*
X282625Y-175022D01*
X295425Y-175022D01*
X301725Y-168722D01*
X301725Y-162322D01*
G54D10*
X301725Y-187722D02*
X301725Y-181322D01*
X295425Y-175022D01*
X282625Y-175022D01*
X276325Y-181322D01*
X276325Y-194122D01*
X282625Y-200422D01*
X295425Y-200422D01*
X301725Y-194122D01*
X301725Y-187722D01*
G54D10*
X327125Y-162322D02*
X327125Y-155922D01*
X320825Y-149622D01*
X308025Y-149622D01*
X301725Y-155922D01*
X301725Y-168722D01*
X308025Y-175022D01*
X320825Y-175022D01*
X327125Y-168722D01*
X327125Y-162322D01*
G54D10*
X327125Y-187722D02*
X327125Y-181322D01*
X320825Y-175022D01*
X308025Y-175022D01*
X301725Y-181322D01*
X301725Y-194122D01*
X308025Y-200422D01*
X320825Y-200422D01*
X327125Y-194122D01*
X327125Y-187722D01*
G54D10*
X352525Y-162322D02*
X352525Y-155922D01*
X346225Y-149622D01*
X333425Y-149622D01*
X327125Y-155922D01*
X327125Y-168722D01*
X333425Y-175022D01*
X346225Y-175022D01*
X352525Y-168722D01*
X352525Y-162322D01*
G54D10*
X352525Y-187722D02*
X352525Y-181322D01*
X346225Y-175022D01*
X333425Y-175022D01*
X327125Y-181322D01*
X327125Y-194122D01*
X333425Y-200422D01*
X346225Y-200422D01*
X352525Y-194122D01*
X352525Y-187722D01*
G54D10*
X377925Y-162322D02*
X377925Y-155922D01*
X371625Y-149622D01*
X358825Y-149622D01*
X352525Y-155922D01*
X352525Y-168722D01*
X358825Y-175022D01*
X371625Y-175022D01*
X377925Y-168722D01*
X377925Y-162322D01*
G54D10*
X377925Y-187722D02*
X377925Y-181322D01*
X371625Y-175022D01*
X358825Y-175022D01*
X352525Y-181322D01*
X352525Y-194122D01*
X358825Y-200422D01*
X371625Y-200422D01*
X377925Y-194122D01*
X377925Y-187722D01*
G54D10*
X403325Y-162322D02*
X403325Y-155922D01*
X397025Y-149622D01*
X384225Y-149622D01*
X377925Y-155922D01*
X377925Y-168722D01*
X384225Y-175022D01*
X397025Y-175022D01*
X403325Y-168722D01*
X403325Y-162322D01*
G54D10*
X403325Y-187722D02*
X403325Y-181322D01*
X397025Y-175022D01*
X384225Y-175022D01*
X377925Y-181322D01*
X377925Y-194122D01*
X384225Y-200422D01*
X397025Y-200422D01*
X403325Y-194122D01*
X403325Y-187722D01*
G54D10*
X428725Y-162322D02*
X428725Y-155922D01*
X422425Y-149622D01*
X409625Y-149622D01*
X403325Y-155922D01*
X403325Y-168722D01*
X409625Y-175022D01*
X422425Y-175022D01*
X428725Y-168722D01*
X428725Y-162322D01*
G54D10*
X428725Y-187722D02*
X428725Y-181322D01*
X422425Y-175022D01*
X409625Y-175022D01*
X403325Y-181322D01*
X403325Y-194122D01*
X409625Y-200422D01*
X422425Y-200422D01*
X428725Y-194122D01*
X428725Y-187722D01*
G54D10*
X454125Y-162322D02*
X454125Y-155922D01*
X447825Y-149622D01*
X435025Y-149622D01*
X428725Y-155922D01*
X428725Y-168722D01*
X435025Y-175022D01*
X447825Y-175022D01*
X454125Y-168722D01*
X454125Y-162322D01*
G54D10*
X454125Y-187722D02*
X454125Y-181322D01*
X447825Y-175022D01*
X435025Y-175022D01*
X428725Y-181322D01*
X428725Y-194122D01*
X435025Y-200422D01*
X447825Y-200422D01*
X454125Y-194122D01*
X454125Y-187722D01*
G54D11*
X81542Y-213987D02*
X86209Y-209320D01*
X86209Y-221765D01*
G54D10*
X590578Y-168293D02*
X584278Y-161993D01*
X571478Y-161993D01*
X565178Y-168293D01*
X565178Y-181093D01*
X571478Y-187393D01*
X584278Y-187393D01*
X590578Y-181093D01*
X590578Y-168293D01*
G54D10*
X565178Y-168293D02*
X558878Y-161993D01*
X546078Y-161993D01*
X539778Y-168293D01*
X539778Y-181093D01*
X546078Y-187393D01*
X558878Y-187393D01*
X565178Y-181093D01*
X565178Y-168293D01*
G54D10*
X539778Y-168293D02*
X533478Y-161993D01*
X520678Y-161993D01*
X514378Y-168293D01*
X514378Y-181093D01*
X520678Y-187393D01*
X533478Y-187393D01*
X539778Y-181093D01*
X539778Y-168293D01*
G54D10*
X514378Y-168293D02*
X508078Y-161993D01*
X495278Y-161993D01*
X488978Y-168293D01*
X488978Y-181093D01*
X495278Y-187393D01*
X508078Y-187393D01*
X514378Y-181093D01*
X514378Y-168293D01*
G54D10*
X170378Y-517890D02*
X170378Y-500490D01*
X139978Y-500490D01*
X139978Y-517890D01*
X170378Y-517890D01*
G36*
X170278Y-517790D02*
X170278Y-501090D01*
X163078Y-501090D01*
X163078Y-517790D01*
X170278Y-517790D01*
G37*
G54D10*
X170278Y-517790D02*
X170278Y-501090D01*
X163078Y-501090D01*
X163078Y-517790D01*
X170278Y-517790D01*
G54D10*
X181378Y-509190D02*
X170278Y-509190D01*
G54D10*
X140078Y-509190D02*
X128978Y-509190D01*
G54D10*
X391437Y-518288D02*
X391437Y-500888D01*
X361037Y-500888D01*
X361037Y-518288D01*
X391437Y-518288D01*
G36*
X391337Y-518188D02*
X391337Y-501488D01*
X384137Y-501488D01*
X384137Y-518188D01*
X391337Y-518188D01*
G37*
G54D10*
X391337Y-518188D02*
X391337Y-501488D01*
X384137Y-501488D01*
X384137Y-518188D01*
X391337Y-518188D01*
G54D10*
X402437Y-509588D02*
X391337Y-509588D01*
G54D10*
X361137Y-509588D02*
X350037Y-509588D01*
G54D10*
X482600Y-155575D02*
X596900Y-155575D01*
X596900Y-193675D01*
X482600Y-193675D01*
X482600Y-155575D01*
G54D10*
X66278Y-6350D02*
X586978Y-6350D01*
X586978Y-69850D01*
X66278Y-69850D01*
X66278Y-6350D01*
G54D10*
X66675Y-142875D02*
X460375Y-142875D01*
X460375Y-206375D01*
X66675Y-206375D01*
X66675Y-142875D01*
G54D12*
X497468Y-204145D02*
X502801Y-198812D01*
X502801Y-213034D01*
G54D10*
X480100Y-500888D02*
X480100Y-518288D01*
X510500Y-518288D01*
X510500Y-500888D01*
X480100Y-500888D01*
G36*
X480200Y-500988D02*
X480200Y-517688D01*
X487400Y-517688D01*
X487400Y-500988D01*
X480200Y-500988D01*
G37*
G54D10*
X480200Y-500988D02*
X480200Y-517688D01*
X487400Y-517688D01*
X487400Y-500988D01*
X480200Y-500988D01*
G54D10*
X469100Y-509588D02*
X480200Y-509588D01*
G54D10*
X510400Y-509588D02*
X521500Y-509588D01*
G54D10*
X458390Y-455613D02*
X26590Y-455613D01*
X26590Y-249238D01*
X458390Y-249238D01*
X458390Y-455613D01*
G54D10*
X247253Y-392113D02*
X120253Y-392113D01*
X120253Y-271463D01*
X247253Y-271463D01*
X247253Y-392113D01*
G54D10*
X228203Y-439738D02*
X113903Y-439738D01*
X113903Y-398463D01*
X228203Y-398463D01*
X228203Y-439738D01*
G54D10*
G75*
G01X210740Y-430213D02*
G03X210740Y-430213I6350J0D01*
G01*
G54D10*
X363140Y-428626D02*
X267890Y-428626D01*
X267890Y-346076D01*
X363140Y-346076D01*
X363140Y-428626D01*
G54D10*
G75*
G01X380602Y-360363D02*
G03X380602Y-360363I33338J0D01*
G01*
G54D10*
G75*
G01X29765Y-357188D02*
G03X29765Y-357188I33338J0D01*
G01*
G54D10*
X352028Y-342901D02*
X352028Y-304801D01*
G54D10*
X312340Y-342901D02*
X312340Y-304801D01*
G54D10*
X275828Y-342901D02*
X275828Y-304801D01*
G54D10*
X293290Y-342901D02*
X293290Y-304801D01*
G54D10*
X331390Y-342901D02*
X331390Y-304801D01*
G54D12*
X20241Y-471398D02*
X28774Y-471398D01*
G54D12*
X24508Y-467842D02*
X24508Y-474953D01*
G54D12*
X45343Y-475486D02*
X45343Y-471931D01*
X44276Y-470153D01*
X42143Y-469620D01*
X40010Y-470153D01*
X38943Y-471931D01*
X38943Y-475486D01*
X40010Y-477264D01*
X42143Y-477620D01*
X44276Y-477264D01*
X45343Y-475486D01*
G54D12*
X56721Y-469620D02*
X56721Y-477620D01*
G54D12*
X56721Y-475842D02*
X55654Y-477264D01*
X53521Y-477620D01*
X51388Y-477264D01*
X50321Y-475842D01*
X50321Y-469620D01*
G54D12*
X63832Y-463398D02*
X63832Y-476731D01*
X64899Y-477620D01*
X65966Y-477264D01*
G54D12*
X61699Y-469620D02*
X65966Y-469620D01*
G54D12*
X20240Y-231685D02*
X28773Y-231685D01*
G54D12*
X45342Y-235774D02*
X45342Y-232218D01*
X44276Y-230441D01*
X42142Y-229907D01*
X40009Y-230441D01*
X38942Y-232218D01*
X38942Y-235774D01*
X40009Y-237552D01*
X42142Y-237907D01*
X44276Y-237552D01*
X45342Y-235774D01*
G54D12*
X56720Y-229907D02*
X56720Y-237907D01*
G54D12*
X56720Y-236130D02*
X55653Y-237552D01*
X53520Y-237907D01*
X51387Y-237552D01*
X50320Y-236130D01*
X50320Y-229907D01*
G54D12*
X63831Y-223685D02*
X63831Y-237018D01*
X64898Y-237907D01*
X65965Y-237552D01*
G54D12*
X61698Y-229907D02*
X65965Y-229907D01*
G54D11*
X424252Y-472329D02*
X431718Y-472329D01*
G54D11*
X427985Y-469218D02*
X427985Y-475440D01*
G54D11*
X440618Y-477773D02*
X440618Y-465329D01*
G54D11*
X444974Y-477773D02*
X444974Y-465329D01*
X452440Y-477773D01*
X452440Y-465329D01*
G54D11*
X422663Y-235790D02*
X430130Y-235790D01*
G54D11*
X439029Y-241235D02*
X439029Y-228790D01*
G54D11*
X443385Y-241235D02*
X443385Y-228790D01*
X450852Y-241235D01*
X450852Y-228790D01*
G54D13*
X590550Y-111075D02*
X584250Y-104775D01*
X571450Y-104775D01*
X565150Y-111075D01*
X565150Y-123875D01*
X571450Y-130175D01*
X584250Y-130175D01*
X590550Y-123875D01*
X590550Y-111075D01*
G54D13*
X565150Y-111075D02*
X558850Y-104775D01*
X546050Y-104775D01*
X539750Y-111075D01*
X539750Y-123875D01*
X546050Y-130175D01*
X558850Y-130175D01*
X565150Y-123875D01*
X565150Y-111075D01*
G54D10*
X495590Y-336468D02*
X495590Y-245981D01*
X651165Y-245981D01*
X651165Y-336468D01*
X495590Y-336468D01*
G54D10*
X621003Y-245981D02*
X621003Y-336468D01*
G54D10*
X621003Y-311068D02*
X527340Y-311068D01*
X527340Y-269793D01*
X621003Y-269793D01*
G54D14*
X482653Y-324562D02*
X482653Y-335229D01*
G54D14*
X478209Y-329896D02*
X487098Y-329896D01*
G54D14*
X575919Y-343215D02*
X575919Y-353882D01*
G54D10*
X495590Y-463072D02*
X495590Y-372584D01*
X651165Y-372584D01*
X651165Y-463072D01*
X495590Y-463072D01*
G54D10*
X621003Y-372584D02*
X621003Y-463072D01*
G54D10*
X621003Y-437672D02*
X527340Y-437672D01*
X527340Y-396396D01*
X621003Y-396396D01*
G54D14*
X482653Y-451165D02*
X482653Y-461832D01*
G54D14*
X478209Y-456498D02*
X487098Y-456498D01*
G54D14*
X575919Y-469818D02*
X575919Y-480485D01*
G54D12*
X599068Y-238434D02*
X599068Y-224212D01*
X604401Y-224212D01*
X606534Y-225100D01*
X607601Y-226878D01*
X607601Y-235767D01*
X606534Y-237545D01*
X604401Y-238434D01*
X599068Y-238434D01*
G54D12*
X621112Y-235767D02*
X620045Y-237545D01*
X617912Y-238434D01*
X615778Y-238434D01*
X613645Y-237545D01*
X612578Y-235767D01*
X612578Y-226878D01*
X613645Y-225100D01*
X615778Y-224212D01*
X617912Y-224212D01*
X620045Y-225100D01*
X621112Y-226878D01*
G54D12*
X631280Y-229545D02*
X636614Y-224212D01*
X636614Y-238434D01*
G54D12*
X599068Y-365434D02*
X599068Y-351212D01*
X604401Y-351212D01*
X606534Y-352100D01*
X607601Y-353878D01*
X607601Y-362767D01*
X606534Y-364545D01*
X604401Y-365434D01*
X599068Y-365434D01*
G54D12*
X621112Y-362767D02*
X620045Y-364545D01*
X617912Y-365434D01*
X615778Y-365434D01*
X613645Y-364545D01*
X612578Y-362767D01*
X612578Y-353878D01*
X613645Y-352100D01*
X615778Y-351212D01*
X617912Y-351212D01*
X620045Y-352100D01*
X621112Y-353878D01*
G54D12*
X639814Y-365434D02*
X631280Y-365434D01*
X631280Y-364545D01*
X632347Y-362767D01*
X638747Y-357434D01*
X639814Y-355656D01*
X639814Y-353878D01*
X638747Y-352100D01*
X636614Y-351212D01*
X634480Y-351212D01*
X632347Y-352100D01*
X631280Y-353878D01*
G54D12*
X141868Y-543234D02*
X141868Y-529012D01*
X147201Y-529012D01*
X149334Y-529900D01*
X150401Y-531678D01*
X150401Y-540567D01*
X149334Y-542345D01*
X147201Y-543234D01*
X141868Y-543234D01*
G54D12*
X160570Y-534345D02*
X165903Y-529012D01*
X165903Y-543234D01*
G54D12*
X364118Y-543234D02*
X364118Y-529012D01*
X369451Y-529012D01*
X371584Y-529900D01*
X372651Y-531678D01*
X372651Y-540567D01*
X371584Y-542345D01*
X369451Y-543234D01*
X364118Y-543234D01*
G54D12*
X391353Y-543234D02*
X382820Y-543234D01*
X382820Y-542345D01*
X383886Y-540567D01*
X390286Y-535234D01*
X391353Y-533456D01*
X391353Y-531678D01*
X390286Y-529900D01*
X388153Y-529012D01*
X386020Y-529012D01*
X383886Y-529900D01*
X382820Y-531678D01*
G54D12*
X484768Y-543234D02*
X484768Y-529012D01*
X490101Y-529012D01*
X492234Y-529900D01*
X493301Y-531678D01*
X493301Y-540567D01*
X492234Y-542345D01*
X490101Y-543234D01*
X484768Y-543234D01*
G54D12*
X503470Y-531678D02*
X504536Y-529900D01*
X506670Y-529012D01*
X508803Y-529012D01*
X510936Y-529900D01*
X512003Y-531678D01*
X512003Y-533456D01*
X510936Y-535234D01*
X508803Y-536123D01*
X510936Y-537012D01*
X512003Y-538789D01*
X512003Y-540567D01*
X510936Y-542345D01*
X508803Y-543234D01*
X506670Y-543234D01*
X504536Y-542345D01*
X503470Y-540567D01*
G54D11*
X115491Y-465175D02*
X120158Y-477620D01*
X124824Y-465175D01*
G54D11*
X134780Y-475753D02*
X134780Y-472642D01*
X133847Y-471086D01*
X131980Y-470620D01*
X130114Y-471086D01*
X129180Y-472642D01*
X129180Y-475753D01*
X130114Y-477309D01*
X131980Y-477620D01*
X133847Y-477309D01*
X134780Y-475753D01*
G54D11*
X139136Y-477620D02*
X139136Y-465175D01*
G54D11*
X145359Y-465175D02*
X145359Y-476842D01*
X146292Y-477620D01*
X147226Y-477309D01*
G54D11*
X143492Y-470620D02*
X147226Y-470620D01*
G54D11*
X151581Y-471398D02*
X153448Y-470620D01*
X155688Y-470620D01*
X157181Y-472175D01*
X157181Y-477620D01*
G54D11*
X157181Y-475286D02*
X156248Y-473731D01*
X154381Y-473420D01*
X152514Y-473731D01*
X151581Y-475286D01*
X151954Y-476842D01*
X153448Y-477620D01*
X154381Y-477620D01*
X154754Y-477620D01*
X156248Y-476842D01*
X157181Y-475286D01*
G54D11*
X161537Y-479953D02*
X163404Y-480731D01*
X164710Y-480731D01*
X166577Y-479953D01*
X167137Y-478398D01*
X167137Y-470620D01*
G54D11*
X167137Y-472642D02*
X166204Y-471086D01*
X164337Y-470620D01*
X162470Y-471086D01*
X161537Y-472642D01*
X161537Y-475753D01*
X162470Y-477309D01*
X164337Y-477620D01*
X166204Y-477309D01*
X167137Y-475753D01*
G54D11*
X177093Y-476842D02*
X175600Y-477620D01*
X173733Y-477620D01*
X171866Y-476842D01*
X171493Y-475286D01*
X171493Y-472642D01*
X172426Y-471086D01*
X174293Y-470620D01*
X176160Y-471086D01*
X177093Y-472175D01*
X177093Y-473731D01*
X171493Y-473731D01*
G54D11*
X185992Y-477620D02*
X190659Y-465175D01*
X195326Y-477620D01*
G54D11*
X187859Y-472953D02*
X193459Y-472953D01*
G54D11*
X205281Y-477620D02*
X205281Y-465175D01*
G54D11*
X205281Y-472642D02*
X204348Y-471086D01*
X202481Y-470620D01*
X200614Y-471086D01*
X199681Y-472642D01*
X199681Y-475753D01*
X200614Y-477309D01*
X202481Y-477620D01*
X204348Y-477309D01*
X205281Y-475753D01*
G54D11*
X211504Y-468286D02*
X211504Y-468286D01*
G54D11*
X209637Y-480731D02*
X210570Y-480731D01*
X211504Y-479486D01*
X211504Y-470620D01*
G54D11*
X221460Y-470620D02*
X221460Y-477620D01*
G54D11*
X221460Y-476064D02*
X220527Y-477309D01*
X218660Y-477620D01*
X216794Y-477309D01*
X215860Y-476064D01*
X215860Y-470620D01*
G54D11*
X225816Y-476842D02*
X227683Y-477620D01*
X229550Y-477620D01*
X231416Y-476842D01*
X231416Y-475286D01*
X230483Y-474509D01*
X226750Y-473731D01*
X225816Y-472953D01*
X225816Y-471398D01*
X227683Y-470620D01*
X229550Y-470620D01*
X231416Y-471398D01*
G54D11*
X237639Y-465175D02*
X237639Y-476842D01*
X238572Y-477620D01*
X239506Y-477309D01*
G54D11*
X235772Y-470620D02*
X239506Y-470620D01*
G54D15*
G75*
G01X644525Y-529034D02*
G03X644525Y-529034I-23416J0D01*
G01*
G54D15*
G75*
G01X644525Y-38497D02*
G03X644525Y-38497I-23416J0D01*
G01*
G54D15*
G75*
G01X55563Y-38497D02*
G03X55563Y-38497I-23416J0D01*
G01*
G54D15*
G75*
G01X55563Y-529034D02*
G03X55563Y-529034I-23416J0D01*
G01*
M02*
