; Drill file
; Format: 2.4 (00.0000)
M48
INCH
T01C0.0197
T02C0.0315
T03C0.0394
T04C0.1083
T05C0.122
%
G05
G90
T01
X019430Y-017300
X020420Y-017300
X021930Y-017300
X022920Y-017300
X022920Y-015550
X021950Y-015550
X022060Y-014940
X022060Y-013950
X021930Y-012320
X022920Y-012320
X022920Y-010570
X021950Y-010570
X022060Y-009950
X022060Y-008970
X020310Y-008970
X020310Y-009940
X020420Y-010570
X019450Y-010570
X019430Y-012320
X020420Y-012320
X020310Y-013950
X020310Y-014920
X020420Y-015550
X019450Y-015550
T02
X004610Y-020050
X007610Y-020050
X013310Y-020060
X016310Y-020060
X018000Y-020060
X021000Y-020060
T03
X001670Y-017310
X001670Y-010440
X003380Y-007390
X003380Y-006390
X004380Y-006390
X004380Y-007390
X005370Y-007390
X005370Y-006390
X006370Y-006390
X006370Y-007390
X007380Y-007390
X007380Y-006390
X008380Y-006390
X008380Y-007390
X009380Y-007390
X009380Y-006390
X010380Y-006390
X010380Y-007390
X011380Y-007390
X011380Y-006390
X012380Y-006390
X012380Y-007390
X013380Y-007390
X013380Y-006390
X014380Y-006390
X014380Y-007390
X015380Y-007390
X015380Y-006390
X016380Y-006390
X016380Y-007390
X017380Y-007390
X017380Y-006390
X019750Y-006880
X020750Y-006880
X021750Y-006880
X022750Y-006880
X022750Y-004630
X021750Y-004630
X021360Y-002020
X020360Y-002020
X019360Y-002020
X018360Y-002020
X017360Y-002020
X016360Y-002020
X015360Y-002020
X014360Y-002020
X013360Y-002020
X012360Y-002020
X011360Y-002020
X010360Y-002020
X009360Y-002020
X009360Y-001020
X010360Y-001020
X011360Y-001020
X012360Y-001020
X013360Y-001020
X014360Y-001020
X015360Y-001020
X016360Y-001020
X017360Y-001020
X018360Y-001020
X019360Y-001020
X020360Y-001020
X021360Y-001020
X022360Y-001020
X022360Y-002020
X017420Y-010440
X017420Y-017310
X008360Y-002020
X007360Y-002020
X006360Y-002020
X005360Y-002020
X004360Y-002020
X003360Y-002020
X003360Y-001020
X004360Y-001020
X005360Y-001020
X006360Y-001020
X007360Y-001020
X008360Y-001020
T04
X001270Y-020830
X001270Y-001520
X024450Y-001520
X024450Y-020830
T05
X015480Y-016940
X003610Y-010810
M30
